<?xml version="1.0" standalone="no"?>
<!DOCTYPE svg PUBLIC "-//W3C//DTD SVG 20010904//EN"
 "http://www.w3.org/TR/2001/REC-SVG-20010904/DTD/svg10.dtd">
<svg version="1.0" xmlns="http://www.w3.org/2000/svg"
 width="1076.000000pt" height="500.000000pt" viewBox="0 0 1076.000000 500.000000"
 preserveAspectRatio="xMidYMid meet">

<g transform="translate(0.000000,500.000000) scale(0.100000,-0.100000)"
fill="#000000" stroke="none">
<path d="M1053 3183 c-22 -3 -34 -11 -39 -26 -14 -47 -33 -57 -106 -57 -63 0
-69 2 -80 25 -13 29 -30 34 -88 22 -70 -14 -70 -16 -65 -134 3 -58 8 -110 11
-114 6 -10 64 -12 88 -3 16 6 12 29 -11 54 -36 39 -53 64 -53 77 0 18 26 17
33 -1 3 -8 15 -20 27 -26 18 -10 22 -8 31 19 6 17 15 31 20 31 15 0 10 -34
-11 -78 -12 -24 -18 -47 -15 -51 7 -12 293 -2 328 11 23 9 30 8 42 -8 13 -18
15 -18 27 -2 12 16 52 22 131 19 42 -2 32 -21 -11 -21 -21 0 -42 -4 -48 -9 -5
-5 -97 -13 -204 -17 -107 -3 -203 -11 -213 -16 -10 -5 -49 -12 -88 -15 -38 -3
-71 -9 -73 -12 -2 -3 0 -26 5 -51 5 -25 16 -94 24 -155 42 -295 57 -368 82
-393 7 -7 13 -22 13 -31 0 -10 7 -24 15 -31 8 -7 15 -17 15 -22 0 -65 393
-391 447 -371 26 10 150 91 203 132 66 51 171 159 205 211 38 58 74 131 75
150 0 9 4 20 9 25 10 11 25 93 46 250 7 55 19 139 25 187 15 105 11 114 -63
122 -29 2 -83 9 -122 15 -38 5 -112 10 -162 10 -54 1 -93 5 -93 11 0 6 61 9
165 7 129 -3 165 -1 169 10 3 7 15 13 26 13 28 0 25 28 -7 62 l-26 28 36 15
c44 18 55 19 39 3 -18 -18 -14 -36 13 -60 14 -12 25 -24 25 -27 0 -3 -16 -17
-35 -30 -41 -27 -37 -41 10 -41 47 0 53 17 52 134 l-1 99 -30 12 c-17 7 -47
15 -66 17 -29 2 -36 -1 -48 -24 -12 -25 -19 -28 -61 -28 -85 0 -110 9 -125 45
-15 34 -45 45 -128 45 -32 0 -39 -4 -44 -25 -9 -35 -32 -45 -109 -45 -62 0
-66 2 -78 28 -6 15 -16 30 -22 34 -10 8 -54 8 -112 1z m117 -106 c10 -7 17
-31 18 -59 2 -48 -9 -62 -26 -32 -7 13 -13 14 -30 5 -41 -22 -52 -14 -52 34 0
31 5 47 18 54 23 14 54 13 72 -2z m292 -17 c-2 -14 -4 -35 -6 -48 -6 -50 -48
-54 -45 -4 1 15 1 32 -1 37 -8 32 1 46 28 43 22 -2 26 -7 24 -28z m-152 -35
c0 -46 -11 -63 -28 -42 -11 14 -11 66 1 85 15 22 27 2 27 -43z m-354 -18 c1
-40 -2 -57 -11 -57 -32 0 -61 94 -34 111 31 20 44 5 45 -54z m693 31 c25 -58
29 -78 19 -84 -5 -3 -20 3 -32 15 -27 26 -32 26 -63 1 -50 -39 -47 -6 5 68 30
41 54 41 71 0z m-249 -102 c0 -11 -19 -15 -25 -6 -3 5 1 10 9 10 9 0 16 -2 16
-4z m41 -131 c26 -14 50 -59 63 -121 10 -45 -15 -99 -72 -153 -26 -25 -51 -54
-55 -64 -3 -9 -17 -22 -31 -28 -42 -20 -39 -46 8 -74 24 -14 48 -25 55 -25 22
0 112 51 143 81 30 28 30 30 13 43 -37 27 -14 184 33 231 33 33 56 31 83 -6
21 -30 22 -35 9 -78 -7 -25 -15 -60 -18 -78 -2 -18 -10 -38 -18 -44 -8 -6 -14
-16 -14 -21 0 -17 -68 -83 -107 -103 -121 -61 -126 -136 -12 -187 56 -25 58
-70 5 -79 -12 -3 -30 -24 -44 -52 -30 -57 -46 -61 -38 -9 19 125 21 115 -26
138 -27 13 -49 33 -58 52 -8 17 -20 33 -25 35 -33 14 -228 -38 -222 -58 4 -11
79 -70 99 -78 20 -7 -3 -40 -35 -48 -15 -4 -48 -26 -74 -49 -40 -35 -48 -39
-56 -24 -7 12 1 27 38 64 l47 47 -41 44 c-22 24 -41 49 -41 56 0 14 85 73 105
73 12 0 35 28 35 43 0 2 -29 12 -65 22 -65 17 -96 37 -75 50 5 3 10 19 10 34
0 42 27 66 109 99 84 32 105 56 47 51 -21 -2 -40 1 -44 6 -4 6 -15 15 -25 20
-28 15 -23 29 18 42 20 7 50 26 67 43 38 38 46 38 54 -4 7 -38 37 -72 53 -61
6 3 11 24 11 46 0 63 -63 110 -124 95 -14 -3 -27 -2 -30 2 -5 9 21 35 45 45
23 10 171 -4 200 -18z m-436 -220 c32 -31 32 -74 0 -109 -51 -55 -155 -18
-155 56 0 71 103 106 155 53z"/>
<path d="M1610 2669 c0 -6 -7 -17 -15 -23 -14 -10 -14 -16 1 -58 16 -43 16
-48 1 -79 -11 -24 -13 -37 -5 -44 7 -7 12 -6 15 2 2 6 13 21 23 33 21 24 33
86 28 140 -2 27 -8 36 -25 38 -13 2 -23 -2 -23 -9z"/>
<path d="M9506 2899 c-44 -35 -26 -99 28 -99 57 0 77 63 33 103 -25 22 -29 21
-61 -4z"/>
<path d="M6230 2891 c-83 -19 -147 -80 -170 -164 -11 -41 -10 -54 4 -101 20
-62 42 -86 171 -183 105 -79 130 -118 114 -175 -11 -43 -46 -73 -101 -90 -48
-14 -94 0 -148 43 -19 16 -38 29 -43 29 -4 0 -7 -30 -5 -67 3 -65 4 -68 38
-87 48 -28 186 -28 250 1 101 45 150 114 150 210 0 46 -6 69 -30 111 -17 28
-34 52 -38 52 -4 0 -21 13 -38 28 -18 15 -42 34 -54 42 -88 59 -129 105 -137
155 -5 30 -1 39 30 70 30 30 41 35 84 35 37 0 59 -7 93 -30 25 -16 48 -30 53
-30 4 0 7 29 7 65 0 54 -3 66 -20 75 -26 14 -165 21 -210 11z"/>
<path d="M6809 2891 c-49 -10 -101 -44 -135 -89 -26 -34 -29 -44 -29 -119 0
-76 2 -84 31 -120 17 -21 74 -71 128 -111 73 -55 102 -84 118 -117 20 -42 20
-45 4 -79 -19 -39 -41 -57 -98 -77 -46 -16 -108 2 -151 44 -41 40 -53 31 -49
-39 2 -44 8 -63 23 -76 27 -23 123 -41 173 -34 158 25 246 107 246 231 0 92
-31 136 -170 241 -140 106 -161 155 -96 220 30 30 41 34 83 34 40 0 59 -6 92
-30 23 -17 46 -28 51 -25 12 8 13 105 1 124 -16 25 -143 37 -222 22z"/>
<path d="M2174 2876 c-3 -8 -1 -31 5 -53 6 -21 11 -128 11 -240 0 -276 23
-379 102 -453 49 -45 86 -55 213 -55 119 0 121 0 172 33 43 28 58 46 84 100
l33 67 8 250 c5 138 10 275 11 305 l2 55 -60 3 c-32 2 -69 1 -81 -2 -20 -5
-21 -10 -13 -43 5 -21 9 -144 9 -274 0 -252 -4 -275 -55 -340 -25 -31 -79 -59
-114 -59 -39 0 -102 40 -132 85 -41 61 -52 150 -45 366 3 101 7 202 9 224 l2
40 -78 3 c-60 2 -79 0 -83 -12z"/>
<path d="M3005 2880 c-3 -6 13 -32 36 -60 l41 -49 -1 -283 c-1 -156 -6 -303
-12 -327 -16 -71 -8 -81 66 -81 80 0 85 8 74 110 -4 41 -9 150 -11 243 -3 150
-1 167 14 167 9 0 33 -25 53 -55 20 -31 69 -97 108 -148 82 -105 196 -264 204
-283 8 -21 58 -35 114 -32 l54 3 -3 40 c-8 91 -6 654 2 708 l9 58 -79 -3 c-64
-2 -78 -6 -75 -18 10 -37 15 -545 6 -552 -11 -9 -19 -1 -95 107 -60 84 -286
393 -320 438 -20 25 -26 27 -100 27 -43 0 -82 -5 -85 -10z"/>
<path d="M3945 2879 c-4 -6 -2 -29 4 -52 13 -47 10 -648 -3 -704 -8 -30 -6
-32 25 -38 19 -3 57 -5 84 -3 l50 3 -5 65 c-8 114 -5 603 4 673 l9 67 -81 0
c-47 0 -84 -5 -87 -11z"/>
<path d="M4267 2883 c-12 -12 -8 -21 33 -68 l40 -46 0 -257 c0 -141 -5 -290
-10 -331 -12 -93 -7 -101 70 -101 78 0 82 7 65 105 -16 88 -21 410 -6 419 4 3
15 -2 24 -12 25 -26 288 -379 330 -443 21 -31 47 -59 60 -63 29 -8 86 -7 115
1 21 5 23 10 16 37 -7 30 -10 655 -2 726 l3 35 -75 0 -75 0 3 -35 c9 -100 12
-524 5 -531 -6 -6 -63 63 -139 166 -71 97 -134 182 -140 188 -6 7 -28 37 -49
67 -21 30 -53 76 -72 103 l-35 47 -77 0 c-43 0 -81 -3 -84 -7z"/>
<path d="M5520 2870 c-11 -11 -20 -25 -20 -32 0 -11 -82 -183 -219 -456 -94
-188 -93 -187 -103 -190 -4 -2 -8 -8 -8 -13 0 -6 -10 -23 -21 -39 -35 -46 -21
-60 61 -60 85 0 110 11 110 48 1 34 41 152 64 187 l17 26 136 -3 136 -3 33
-65 c18 -36 36 -83 40 -105 13 -75 26 -85 115 -85 56 0 81 4 85 13 2 7 -16 44
-41 83 -25 38 -86 152 -136 254 -50 102 -110 225 -135 273 -24 49 -44 94 -44
101 0 8 -7 19 -15 26 -8 7 -15 21 -15 31 0 28 -17 32 -40 9z m47 -275 c8 -22
17 -50 20 -62 3 -12 11 -28 19 -34 8 -6 14 -22 14 -35 0 -23 -2 -24 -85 -24
-96 0 -108 8 -81 59 9 17 23 44 31 60 8 16 15 38 15 48 0 50 47 42 67 -12z"/>
<path d="M7555 2874 c-4 -10 -11 -26 -16 -34 -5 -8 -12 -22 -15 -30 -8 -19
-194 -402 -244 -502 -52 -102 -60 -117 -93 -161 -43 -56 -33 -67 62 -67 91 0
103 9 115 85 10 60 45 147 64 161 21 16 244 19 272 4 25 -13 77 -129 94 -211
7 -32 28 -39 114 -39 81 0 86 12 34 90 -36 53 -88 156 -288 565 -24 50 -44 95
-44 101 0 6 -11 21 -25 34 -23 22 -25 22 -30 4z m36 -266 c23 -46 40 -87 55
-126 11 -30 10 -33 -10 -38 -12 -3 -53 -4 -91 -2 -64 3 -70 5 -67 23 6 33 81
187 89 181 5 -2 15 -19 24 -38z"/>
<path d="M8065 2881 c-3 -6 1 -43 9 -83 11 -51 15 -134 15 -278 0 -185 2 -211
21 -265 27 -74 59 -118 113 -153 40 -26 48 -27 167 -27 114 0 129 2 167 24 23
13 55 42 71 65 54 75 64 136 73 406 4 135 10 259 14 277 6 28 4 33 -17 38 -13
3 -51 5 -83 3 l-60 -3 3 -45 c1 -25 5 -137 8 -249 5 -179 3 -212 -13 -268 -21
-76 -64 -127 -121 -144 -78 -23 -164 33 -200 130 -19 51 -28 364 -12 461 20
127 26 115 -67 118 -47 2 -84 -1 -88 -7z"/>
<path d="M9328 2796 c-36 -27 -20 -53 55 -91 57 -29 61 -56 25 -133 -27 -58
-30 -82 -8 -82 5 0 33 23 62 50 29 28 61 50 71 50 11 0 47 -26 81 -57 l61 -57
3 33 c2 20 -3 40 -12 50 -9 10 -16 25 -16 34 0 9 -4 19 -10 22 -16 10 -11 45
10 72 23 30 25 43 7 67 -12 16 -19 17 -68 7 -61 -13 -151 -1 -178 23 -24 22
-64 28 -83 12z"/>
<path d="M9235 2319 c-42 -10 -85 -57 -85 -93 0 -29 38 -68 93 -97 44 -22 52
-31 55 -57 3 -25 -2 -33 -24 -45 -24 -13 -34 -13 -67 -1 -53 19 -57 18 -57
-10 0 -19 8 -26 43 -35 36 -11 53 -10 99 4 53 15 56 18 68 59 17 62 -3 98 -74
131 -60 28 -76 57 -48 88 17 19 55 20 94 3 11 -5 20 -1 28 13 9 18 7 22 -12
30 -44 16 -73 18 -113 10z"/>
<path d="M9510 2313 c-30 -6 -76 -47 -95 -87 -31 -62 -10 -173 41 -217 35 -29
114 -41 172 -26 61 15 82 31 64 49 -9 9 -25 9 -60 2 -61 -12 -107 -1 -137 34
-17 20 -21 31 -14 44 8 16 25 18 118 18 123 0 125 1 115 74 -9 66 -54 106
-125 111 -30 2 -65 1 -79 -2z m95 -49 c33 -9 58 -50 45 -74 -9 -17 -21 -20
-86 -20 -83 0 -98 11 -73 57 20 37 64 51 114 37z"/>
<path d="M9845 2313 c-45 -11 -62 -40 -69 -121 -4 -42 -9 -105 -13 -138 l-5
-62 32 -7 c23 -5 35 -3 41 6 5 8 9 64 9 124 1 119 8 139 52 150 27 7 43 29 32
46 -5 9 -44 10 -79 2z"/>
</g>
</svg>
